<svg version="1.1" preserveAspectRatio="none" xmlns="http://www.w3.org/2000/svg" width="500" height="500" viewBox="0 0 500 500"><rect width="100%" height="100%" fill="#121212" fill-opacity="1"/><svg viewBox="721.3384 939.5067 271.0462 357.2835" width="252.62399355133948" height="333" x="123.688px" y="83.5px" xmlns="http://www.w3.org/2000/svg" xmlns:xlink="http://www.w3.org/1999/xlink" preserveAspectRatio="none"><defs></defs><style>.companyName {fill:#E3E3E3;fill-opacity:1;}.icon1 {fill:#F1EC40;fill-opacity:1;}.icon2 {fill:#555555;fill-opacity:1;}.icon3 {fill:#AAAAAA;fill-opacity:1;}.icon3-str {stroke:#AAAAAA;stroke-opacity:1;}.text {fill:#E3E3E3;fill-opacity:1;}</style><g opacity="1" transform="rotate(0 801.7666 1270.3902)">
<svg width="110.1898" height="26.4" x="801.7666" y="1270.3902" version="1.1" preserveAspectRatio="none" viewBox="1.36 -28 118.2 28.32">
  <g transform="matrix(1 0 0 1 0 0)" class="text"><path id="id-6izo4zJp5" d="M11.84-2.40L11.84-2.40Q13.76-2.40 15.24-3.48Q16.72-4.56 17.40-6.28L17.40-6.28L20.64-6.28Q19.72-3.32 17.28-1.52L17.28-1.52Q14.72 0.32 11.20 0.32L11.20 0.32Q6.80 0.32 4.04-2.68L4.04-2.68Q1.36-5.60 1.36-10L1.36-10Q1.36-14.40 4.04-17.32L4.04-17.32Q6.80-20.32 11.20-20.32L11.20-20.32Q14.72-20.32 17.28-18.48L17.28-18.48Q19.72-16.68 20.64-13.72L20.64-13.72L17.40-13.72Q16.72-15.44 15.24-16.52Q13.76-17.60 11.84-17.60Q9.92-17.60 8.58-17Q7.24-16.40 6.32-15.36L6.32-15.36Q4.36-13.20 4.36-10L4.36-10Q4.36-6.80 6.32-4.64L6.32-4.64Q8.32-2.40 11.84-2.40Z M37.04-20.32L37.04-20.32Q41.52-20.32 44.32-17.32L44.32-17.32Q46.96-14.44 46.96-10L46.96-10Q46.96-5.56 44.32-2.68L44.32-2.68Q41.52 0.32 37.04 0.32L37.04 0.32Q32.56 0.32 29.76-2.68L29.76-2.68Q27.12-5.56 27.12-10L27.12-10Q27.12-14.44 29.76-17.32L29.76-17.32Q32.56-20.32 37.04-20.32ZM37.04-2.40L37.04-2.40Q40.28-2.40 42.16-4.64L42.16-4.64Q43.96-6.76 43.96-10L43.96-10Q43.96-13.24 42.16-15.36L42.16-15.36Q40.28-17.60 37.04-17.60L37.04-17.60Q33.80-17.60 31.92-15.36L31.92-15.36Q30.12-13.24 30.12-10L30.12-10Q30.12-6.76 31.92-4.64L31.92-4.64Q33.80-2.40 37.04-2.40Z M70.52 0L70.52-3.20Q68.12 0.32 63.36 0.32L63.36 0.32Q59.04 0.32 56.32-2.68L56.32-2.68Q53.68-5.64 53.68-10L53.68-10Q53.68-14.36 56.32-17.32L56.32-17.32Q59.04-20.32 63.56-20.32Q68.08-20.32 70.52-16.76L70.52-16.76L70.52-28L73.52-28L73.52 0L70.52 0ZM63.76-2.40L63.76-2.40Q67-2.40 68.88-4.64L68.88-4.64Q70.68-6.76 70.68-10L70.68-10Q70.68-13.24 68.88-15.36L68.88-15.36Q67-17.60 63.76-17.60L63.76-17.60Q60.56-17.60 58.56-15.36L58.56-15.36Q56.68-13.24 56.68-10L56.68-10Q56.68-6.76 58.56-4.64L58.56-4.64Q60.56-2.40 63.76-2.40Z M91.64-2.40L91.64-2.40Q95.68-2.40 97.44-5.76L97.44-5.76L100.72-5.76Q99.68-3.04 97.42-1.36Q95.16 0.32 91.60 0.32L91.60 0.32Q87.08 0.32 84.24-2.68L84.24-2.68Q81.48-5.60 81.48-10L81.48-10Q81.48-14.44 84.12-17.32L84.12-17.32Q86.92-20.32 91.40-20.32L91.40-20.32Q95.88-20.32 98.68-17.32L98.68-17.32Q101.32-14.44 101.32-10L101.32-10L101.32-8.80L84.56-8.80Q84.88-6.04 86.76-4.24L86.76-4.24Q88.68-2.40 91.64-2.40ZM91.40-17.60L91.40-17.60Q88.64-17.60 86.76-15.88L86.76-15.88Q85-14.24 84.60-11.60L84.60-11.60L98.20-11.60Q97.80-14.24 96.04-15.88L96.04-15.88Q94.16-17.60 91.40-17.60Z M119.36-20.32L119.56-20.32L119.56-17.32L119.20-17.32Q115.96-17.32 113.92-14.72L113.92-14.72Q112-12.24 112-8.80L112-8.80L112 0L109 0L109-20L112-20L112-15.08Q112.96-18.20 116.16-19.68L116.16-19.68Q117.48-20.32 119.36-20.32L119.36-20.32Z"/></g>
</svg>
</g><g opacity="1" transform="rotate(0 721.3384 1124.3902)">
<svg width="271.0462" height="120" x="721.3384" y="1124.3902" version="1.1" preserveAspectRatio="none" viewBox="2.4219 -28.0078 63.2617 28.0078">
  <g transform="matrix(1 0 0 1 0 0)" class="companyName"><path id="id-D6z1nYkh2" d="M30.43-25.45L30.43 0L25.35 0L25.35-6.88L7.50-6.88L7.50 0L2.42 0L2.42-14.00Q2.42-17.07 3.48-19.65Q4.53-22.23 6.41-24.08Q8.28-25.94 10.84-26.97Q13.40-28.01 16.43-28.01L16.43-28.01L27.87-28.01Q28.40-28.01 28.87-27.81Q29.34-27.62 29.69-27.27Q30.04-26.91 30.23-26.45Q30.43-25.98 30.43-25.45L30.43-25.45ZM7.50-14.00L7.50-11.95L25.35-11.95L25.35-22.93L16.43-22.93Q16.19-22.93 15.44-22.86Q14.69-22.79 13.70-22.52Q12.71-22.25 11.62-21.68Q10.53-21.11 9.61-20.12Q8.69-19.12 8.10-17.63Q7.50-16.13 7.50-14.00L7.50-14.00Z M51.29-14.00L65.68 0L58.48 0L47.05-11.45L43.48-11.45L43.48-16.56L47.05-16.56L58.48-28.01L65.68-28.01L51.29-14.00ZM41.45-28.01L41.45 0L36.37 0L36.37-28.01L41.45-28.01Z"/></g>
</svg>
</g><g opacity="1" transform="rotate(0 789.0999 939.5067)">
<svg width="135.5232" height="154.8835" x="789.0999" y="939.5067" version="1.1" preserveAspectRatio="none" viewBox="15 10 70 80">
  <g transform="matrix(1 0 0 1 0 0)" class="icon1"><polygon points="21.667,73.809 21.667,33.867 49.997,17.679 78.334,33.867 78.334,66.13 49.997,82.321 35,73.75 35,41.604   49.997,33.034 65,41.604 65,58.392 49.997,66.963 48.334,66.013 48.334,49.343 56.716,44.551 49.997,40.713 41.667,45.476   41.667,69.88 49.997,74.642 71.667,62.259 71.667,37.737 49.997,25.358 28.334,37.737 28.334,77.617 49.997,90 85,70 85,30   49.997,10 15,30 15,70 "></polygon></g>
</svg>
</g></svg></svg>